{
  "asset": {
    "generator": "Khronos glTF Blender I/O v1.5.17",
    "version": "2.0"
  },
  "extensionsUsed": ["MOZ_text"],
  "scene": 0,
  "scenes": [
    {
      "name": "Scene",
      "nodes": [0, 1]
    }
  ],
  "nodes": [
    {
      "mesh": 0,
      "name": "Cube"
    },
    {
      "extensions": {
        "MOZ_text": {
          "index": 0,
          "type": "sdf",
          "color": [1.0, 1.0, 1.0, 1.0],
          "alignX": "left",
          "alignY": "top_baseline",
          "value": "Textssssssss",
          "fontName": "Bfont",
          "fontFile": "fonts/<builtin>",
          "size": 1,
          "maxWidth": 0,
          "overflow": "NONE",
          "letterSpacing": 0,
          "lineSpacing": 1,
          "dimensions": [1.8980001211166382, 0.6910000443458557]
        }
      },
      "mesh": 1,
      "name": "Text",
      "translation": [
        0.4246397316455841,
        0.28877270221710205,
        -1.3173073530197144
      ]
    }
  ],
  "materials": [
    {
      "doubleSided": true,
      "name": "Material",
      "pbrMetallicRoughness": {
        "baseColorFactor": [
          0.800000011920929,
          0.800000011920929,
          0.800000011920929,
          1
        ],
        "metallicFactor": 0,
        "roughnessFactor": 0.4000000059604645
      }
    }
  ],
  "meshes": [
    {
      "name": "Cube",
      "primitives": [
        {
          "attributes": {
            "POSITION": 0,
            "NORMAL": 1,
            "TEXCOORD_0": 2
          },
          "indices": 3,
          "material": 0
        }
      ]
    },
    {
      "name": "Text",
      "primitives": [
        {
          "attributes": {
            "POSITION": 4,
            "NORMAL": 5,
            "TEXCOORD_0": 6
          },
          "indices": 7
        }
      ]
    }
  ],
  "accessors": [
    {
      "bufferView": 0,
      "componentType": 5126,
      "count": 24,
      "max": [1, 1, 1],
      "min": [-1, -1, -1],
      "type": "VEC3"
    },
    {
      "bufferView": 1,
      "componentType": 5126,
      "count": 24,
      "type": "VEC3"
    },
    {
      "bufferView": 2,
      "componentType": 5126,
      "count": 24,
      "type": "VEC2"
    },
    {
      "bufferView": 3,
      "componentType": 5123,
      "count": 36,
      "type": "SCALAR"
    },
    {
      "bufferView": 4,
      "componentType": 5126,
      "count": 237,
      "max": [1.915000081062317, 0, 0.009000000543892384],
      "min": [0.017000000923871994, 0, -0.6820000410079956],
      "type": "VEC3"
    },
    {
      "bufferView": 5,
      "componentType": 5126,
      "count": 237,
      "type": "VEC3"
    },
    {
      "bufferView": 6,
      "componentType": 5126,
      "count": 237,
      "type": "VEC2"
    },
    {
      "bufferView": 7,
      "componentType": 5123,
      "count": 513,
      "type": "SCALAR"
    }
  ],
  "bufferViews": [
    {
      "buffer": 0,
      "byteLength": 288,
      "byteOffset": 0
    },
    {
      "buffer": 0,
      "byteLength": 288,
      "byteOffset": 288
    },
    {
      "buffer": 0,
      "byteLength": 192,
      "byteOffset": 576
    },
    {
      "buffer": 0,
      "byteLength": 72,
      "byteOffset": 768
    },
    {
      "buffer": 0,
      "byteLength": 2844,
      "byteOffset": 840
    },
    {
      "buffer": 0,
      "byteLength": 2844,
      "byteOffset": 3684
    },
    {
      "buffer": 0,
      "byteLength": 1896,
      "byteOffset": 6528
    },
    {
      "buffer": 0,
      "byteLength": 1026,
      "byteOffset": 8424
    }
  ],
  "buffers": [
    {
      "byteLength": 9452,
      "uri": "data:application/octet-stream;base64,"
    }
  ]
}
